<?xml version="1.0" standalone="no"?>
<!DOCTYPE svg PUBLIC "-//W3C//DTD SVG 20010904//EN"
 "http://www.w3.org/TR/2001/REC-SVG-20010904/DTD/svg10.dtd">
<svg version="1.0" xmlns="http://www.w3.org/2000/svg"
 width="256.000000pt" height="256.000000pt" viewBox="0 0 256.000000 256.000000"
 preserveAspectRatio="xMidYMid meet">
<metadata>
Created by potrace 1.11, written by Peter Selinger 2001-2013
</metadata>
<g transform="translate(0.000000,256.000000) scale(0.100000,-0.100000)"
fill="#000000" stroke="none">
<path d="M0 1280 l0 -1280 1280 0 1280 0 0 1280 0 1280 -1280 0 -1280 0 0
-1280z m945 1025 c44 -10 127 -14 313 -15 l252 0 0 -90 0 -90 -146 0 -146 0
24 -32 c34 -44 74 -125 83 -168 12 -55 7 -178 -9 -235 -76 -260 -382 -408
-651 -315 l-60 21 -29 -33 c-76 -88 -75 -202 1 -256 47 -33 124 -42 351 -42
241 -1 338 -13 428 -54 31 -15 59 -25 61 -23 2 2 10 30 18 62 50 192 195 343
385 399 74 22 230 22 296 0 53 -17 136 -64 171 -97 l23 -20 -28 -37 c-15 -20
-37 -49 -49 -64 l-22 -27 -45 35 c-134 102 -310 84 -429 -43 -81 -87 -119
-198 -118 -346 1 -158 44 -269 138 -355 65 -59 129 -83 225 -82 75 1 162 33
233 87 l34 27 36 -56 c20 -31 38 -62 40 -69 5 -13 -56 -62 -114 -92 -251 -129
-573 -47 -706 179 l-27 46 -38 -49 c-84 -106 -244 -189 -429 -221 -93 -16
-304 -14 -397 5 -159 32 -288 116 -339 220 -31 62 -35 164 -10 234 20 56 81
136 139 181 25 19 45 39 46 44 0 5 -18 24 -39 43 -57 48 -81 104 -81 189 1 88
22 137 96 214 l57 59 -53 58 c-30 32 -69 91 -89 133 -35 73 -36 78 -36 195 0
141 18 196 91 294 118 158 347 235 549 186z"/>
<path d="M730 2141 c-68 -21 -141 -83 -173 -146 -64 -128 -38 -317 57 -423
105 -116 302 -116 419 1 71 71 103 190 86 315 -16 112 -66 184 -161 231 -52
26 -72 31 -132 30 -39 0 -82 -4 -96 -8z"/>
<path d="M538 835 c-61 -61 -88 -119 -88 -190 0 -136 100 -218 304 -246 222
-31 461 54 529 188 36 70 29 169 -16 211 -49 46 -96 55 -367 63 -140 5 -268
11 -285 14 -26 5 -36 0 -77 -40z"/>
</g>
</svg>
